PathFileType  4	(X/Y/Z) C:\Users\antoi\Documents\MyRepositories\mobilecap\ResultsAnalysis
DataRate	CameraRate	NumFrames	NumMarkers	Units	OrigDataRate	OrigDataStartFrame	OrigNumFrames
100.0	100.0	6	51	mm	100.0	33	257
Frame#	Time	r_knee			r_shank_antsup			r_ankle			r_calc			r_5meta			r_toe			L_knee			L_shank_antsup			L_ankle			L_calc			L_5meta			L_toe			r_sh2			r_sh3			r_sh4			L_sh2			L_sh3			r_thigh1			r_thigh2			r_thigh3			r_thigh4			r_thigh5			L_thigh1			L_thigh2			L_thigh3			L_thigh4			r.ASIS			r.PSIS			L.ASIS			L.PSIS			C7			R_Shoulder			L_Shoulder			R_Sternum			L_Sternum			R_humerus			R_elbow_med			R_elbow_lat			R_forearm			R_wrist_radius			R_wrist_ulna			L_humerus			L_elbow_med			L_elbow_lat			L_forearm			L_wrist_radius			L_wrist_ulna			R_HJC			L_HJC			R_HJC_reg			L_HJC_reg			
		X1	Y1	Z1	X2	Y2	Z2	X3	Y3	Z3	X4	Y4	Z4	X5	Y5	Z5	X6	Y6	Z6	X7	Y7	Z7	X8	Y8	Z8	X9	Y9	Z9	X10	Y10	Z10	X11	Y11	Z11	X12	Y12	Z12	X13	Y13	Z13	X14	Y14	Z14	X15	Y15	Z15	X16	Y16	Z16	X17	Y17	Z17	X18	Y18	Z18	X19	Y19	Z19	X20	Y20	Z20	X21	Y21	Z21	X22	Y22	Z22	X23	Y23	Z23	X24	Y24	Z24	X25	Y25	Z25	X26	Y26	Z26	X27	Y27	Z27	X28	Y28	Z28	X29	Y29	Z29	X30	Y30	Z30	X31	Y31	Z31	X32	Y32	Z32	X33	Y33	Z33	X34	Y34	Z34	X35	Y35	Z35	X36	Y36	Z36	X37	Y37	Z37	X38	Y38	Z38	X39	Y39	Z39	X40	Y40	Z40	X41	Y41	Z41	X42	Y42	Z42	X43	Y43	Z43	X44	Y44	Z44	X45	Y45	Z45	X46	Y46	Z46	X47	Y47	Z47	X48	Y48	Z48	X49	Y49	Z49	X50	Y50	Z50	X51	Y51	Z51	

33	0.32000000	-1167.90340	906.24539	-405.23985	-1165.77357	754.96220	-407.51280	-1296.66461	408.90446	-404.95656	-1356.51421	380.26242	-466.84450	-1162.65962	351.17210	-374.32394	-1125.68587	379.06366	-426.05923	-1169.70808	902.94567	-747.60064	-1160.71864	696.43504	-727.57371	-1304.98478	422.11333	-743.34906	-1367.55678	383.31836	-681.07083	-1168.19369	345.60549	-777.12518	-1128.86069	377.32353	-718.32265	-1192.95006	643.61109	-412.72333	-1227.15142	766.08492	-367.32476	-1257.00442	658.14817	-361.65815	-1222.85805	722.35601	-786.02290	-1261.33259	610.85943	-774.94131	-1151.82350	1201.49814	-379.87158	-1127.66123	1091.80351	-384.20428	-1185.58442	1056.61970	-372.01780	-1260.88028	1181.11276	-399.09361	-1238.09472	1064.82276	-390.35377	-1127.49510	1199.56981	-754.66033	-1119.26721	1064.28804	-746.39422	-1236.43297	1195.30362	-769.92788	-1224.04611	1057.84034	-774.79185	-1114.23233	1463.43847	-445.13232	-1289.33209	1529.48238	-529.63145	-1129.79616	1447.26915	-716.10055	-1292.13052	1529.44488	-623.31511	-1101.04737	1987.90314	-597.75651	-1043.90275	1933.57710	-426.65496	-1055.16458	1946.54878	-768.50257	-987.08536	1869.43057	-568.33218	-986.17985	1869.12802	-619.42009	-1128.51749	1695.69775	-323.58380	-1252.18369	1591.29282	-338.37757	-1222.35624	1626.82521	-266.86898	-1052.39202	1494.88381	-296.67759	-983.50362	1439.17183	-322.12540	-998.04685	1421.56385	-290.62092	-1125.12831	1680.60217	-866.46625	-1243.45867	1619.50196	-845.06983	-1198.98528	1621.88117	-918.54387	-1033.71649	1506.65750	-862.00032	-978.45982	1470.79096	-825.17154	-987.92794	1454.55938	-856.01080	-1212.57265	1386.30578	-474.23163	-1226.85122	1380.23922	-671.09762	-1202.71338	1388.41185	-481.11045	-1208.07112	1388.33982	-660.48178	
34	0.33000000	-1167.81645	906.25902	-405.20615	-1165.72846	754.97318	-407.48358	-1296.68740	409.08859	-405.01621	-1356.62122	380.32445	-466.97368	-1162.66098	351.39437	-374.43236	-1125.78857	379.18363	-426.18889	-1169.76790	902.98349	-747.50143	-1160.80555	696.42742	-727.43025	-1305.18313	422.03794	-743.29928	-1367.74942	383.20804	-681.02369	-1168.25241	345.75647	-777.02211	-1128.96918	377.61926	-718.16757	-1192.98577	643.66540	-412.74500	-1227.12220	766.09621	-367.35263	-1257.42598	658.55458	-361.67482	-1222.93451	722.39434	-785.95457	-1261.46686	610.89367	-774.94654	-1152.17883	1202.00824	-379.80010	-1128.14100	1091.75742	-384.02813	-1185.84408	1056.42659	-372.15000	-1261.50627	1180.76385	-398.85463	-1238.33643	1064.50050	-390.38041	-1128.13508	1199.54077	-754.55891	-1119.67692	1064.22892	-746.20717	-1237.10727	1194.93294	-769.86744	-1224.61071	1057.44969	-774.31554	-1114.70597	1462.30314	-444.74321	-1289.08213	1530.10111	-529.80132	-1130.18841	1446.11696	-715.84352	-1291.77310	1530.02406	-623.29536	-1095.78325	1986.33754	-598.43249	-1038.74985	1931.96691	-427.55344	-1050.16293	1944.72526	-768.96063	-982.82150	1866.99678	-568.86181	-981.86786	1866.64695	-619.85473	-1121.84664	1694.11113	-323.63486	-1245.37132	1588.74368	-337.33777	-1215.36968	1624.83119	-266.11315	-1042.53447	1496.83095	-298.21686	-972.90144	1443.03650	-324.76878	-986.53580	1424.89410	-293.19184	-1117.72417	1678.20645	-866.50581	-1235.85286	1616.06886	-845.90918	-1190.28073	1618.87337	-919.26966	-1023.17468	1508.21842	-859.75869	-967.60233	1474.18173	-822.13103	-976.32353	1457.62774	-852.65594	-1213.87282	1386.18826	-474.02836	-1227.94236	1380.10515	-670.90900	-1203.95702	1388.13884	-480.78488	-1209.12225	1387.99082	-660.24635	
35	0.34000000	-1167.52018	906.20970	-405.18072	-1165.51083	754.85550	-407.55719	-1296.71250	409.22814	-405.03478	-1356.69926	380.35403	-467.06423	-1162.64343	351.63606	-374.52598	-1125.83943	379.30167	-426.29561	-1169.66323	902.82080	-747.30346	-1160.80617	696.42942	-727.26390	-1305.35386	422.02706	-743.29377	-1367.94383	383.07615	-680.87133	-1168.31979	345.93565	-776.92306	-1129.11604	377.95444	-718.03574	-1192.91276	643.62535	-412.78356	-1226.82251	765.99597	-367.39709	-1257.55497	659.17634	-361.63209	-1222.86707	722.35309	-785.81297	-1261.50989	610.90669	-774.91123	-1152.60784	1202.23537	-379.58357	-1128.42930	1091.74139	-383.89247	-1186.02886	1056.25140	-372.23530	-1262.09884	1180.38354	-398.77146	-1238.46042	1064.13656	-390.41630	-1128.71629	1199.45054	-754.38772	-1119.94508	1064.16539	-746.09974	-1237.66010	1194.52957	-769.96287	-1225.01457	1057.06538	-773.97491	-1114.40869	1461.38219	-444.77154	-1288.73856	1530.63903	-530.02657	-1130.29858	1445.31356	-715.71655	-1291.33880	1530.50648	-623.38825	-1090.46077	1984.65691	-599.07116	-1033.44728	1930.18825	-428.39402	-1044.99224	1942.68236	-769.22989	-978.50255	1864.33935	-569.54769	-977.50784	1864.05976	-620.32778	-1115.04340	1692.43999	-323.68227	-1238.23815	1586.20772	-336.08429	-1208.01812	1622.77061	-265.12382	-1032.69105	1498.67103	-299.90964	-962.27940	1446.77332	-327.45254	-975.03536	1428.13709	-295.83265	-1109.87908	1675.77493	-866.79051	-1227.77010	1612.26261	-846.95922	-1181.27297	1615.56581	-919.95964	-1012.44711	1509.55716	-857.70104	-956.72554	1477.36870	-818.79715	-964.49735	1460.44440	-849.50283	-1214.41840	1386.11877	-474.03157	-1228.54994	1380.04815	-670.90810	-1204.50168	1388.03404	-480.80311	-1209.49765	1387.77931	-660.17823	
36	0.35000000	-1167.03149	906.15933	-405.05591	-1165.12433	754.68475	-407.58905	-1296.76334	409.37841	-405.07069	-1356.75518	380.35456	-467.11193	-1162.68559	351.79571	-374.60538	-1125.90682	379.45629	-426.33773	-1169.33896	902.56939	-747.10488	-1160.66673	696.38726	-727.16647	-1305.45950	422.05507	-743.30406	-1368.07901	383.01161	-680.81164	-1168.37444	346.13105	-776.81370	-1129.22578	378.21408	-717.95104	-1192.68016	643.75342	-413.02395	-1226.38770	766.01839	-367.37281	-1257.26602	659.29665	-361.63627	-1222.65757	722.27238	-785.68044	-1261.42971	610.91757	-774.84621	-1153.35315	1201.77160	-379.29800	-1128.58382	1091.72329	-383.79677	-1186.11795	1056.01238	-372.23530	-1262.53811	1179.95536	-398.77921	-1238.53824	1063.74369	-390.49673	-1129.26565	1199.33576	-754.16315	-1120.03394	1064.10493	-746.04660	-1238.05933	1194.20368	-770.19530	-1225.16686	1056.67489	-773.81461	-1114.02776	1460.68939	-444.90925	-1288.34415	1531.08170	-530.16682	-1130.21784	1444.74754	-715.62522	-1290.85572	1530.91045	-623.49823	-1085.09635	1982.79405	-599.55608	-1028.00993	1928.25084	-429.10016	-1039.67244	1940.46355	-769.45578	-973.97438	1861.66358	-570.11735	-973.14859	1861.33629	-620.84867	-1108.07984	1690.66610	-323.69754	-1230.42797	1583.84013	-334.44019	-1199.86237	1620.71626	-263.71857	-1022.87450	1500.42940	-301.62980	-951.64159	1450.39636	-330.20298	-963.57366	1431.26399	-298.50711	-1101.68012	1673.24107	-866.94457	-1219.26481	1608.16144	-848.21278	-1172.07832	1612.03245	-920.63798	-1001.53866	1510.63405	-855.85433	-945.76792	1480.34906	-815.31072	-952.61044	1463.06334	-846.41630	-1214.67142	1386.08675	-474.08341	-1228.86666	1380.05585	-670.95659	-1204.76983	1388.01544	-480.93883	-1209.59321	1387.68645	-660.17433	
37	0.36000000	-1166.30574	906.07487	-404.81344	-1164.53601	754.55850	-407.43670	-1296.82293	409.49673	-405.13622	-1356.81944	380.36991	-467.15782	-1162.76499	351.88708	-374.67737	-1126.02798	379.61845	-426.33436	-1168.76900	902.32801	-746.95548	-1160.34714	696.22450	-727.06161	-1305.49847	422.08924	-743.30503	-1368.19383	383.02543	-680.87858	-1168.42539	346.30297	-776.71355	-1129.24567	378.34936	-717.84245	-1192.26835	643.92712	-413.33297	-1225.94913	766.08726	-367.42230	-1257.00521	659.22263	-361.59933	-1222.32064	722.17201	-785.58360	-1261.22689	610.93231	-774.76035	-1154.14326	1201.11361	-379.06046	-1128.64378	1091.55332	-383.65211	-1186.06432	1055.70643	-372.09715	-1262.80820	1179.40691	-398.73144	-1238.55725	1063.28979	-390.61336	-1129.73230	1199.21766	-754.02369	-1119.96133	1064.01598	-745.98013	-1238.35635	1193.79400	-770.21516	-1225.06723	1056.20147	-773.73176	-1114.12333	1459.85738	-444.99940	-1287.89301	1531.45349	-530.24898	-1130.20484	1443.97411	-715.52599	-1290.32078	1531.27690	-623.56485	-1079.69112	1980.76478	-600.00056	-1022.52236	1926.19050	-429.83834	-1034.26915	1938.12265	-769.79470	-969.43924	1858.94541	-570.53208	-968.77132	1858.45978	-621.38514	-1100.91661	1688.71419	-323.75255	-1222.22388	1581.31852	-332.92605	-1191.36880	1618.45180	-262.39214	-1013.01136	1502.02384	-303.31721	-941.02663	1453.89642	-332.88089	-952.19172	1434.27059	-301.11758	-1093.31373	1670.47299	-866.76577	-1210.47448	1603.89611	-849.45857	-1162.68358	1608.40917	-921.21373	-990.50320	1511.50675	-854.02165	-934.72894	1483.11219	-811.98306	-940.99784	1465.63652	-843.28435	-1215.24695	1385.95200	-474.10681	-1229.35992	1379.98658	-670.98790	-1205.33207	1387.87119	-481.05978	-1209.99193	1387.53213	-660.16851	
38	0.37000000	-1165.23094	905.85075	-404.51979	-1163.70353	754.40124	-407.21717	-1296.86037	409.55064	-405.20367	-1356.88011	380.42594	-467.22071	-1162.82675	351.98440	-374.74789	-1126.17047	379.75257	-426.32193	-1167.98952	902.14132	-746.90685	-1159.81056	695.93248	-726.83247	-1305.50567	422.10980	-743.29614	-1368.33087	383.02695	-680.95736	-1168.48203	346.44471	-776.65157	-1129.25631	378.43362	-717.66148	-1191.75718	643.80232	-413.33016	-1225.37190	766.03345	-367.58058	-1256.86197	659.33220	-361.54535	-1221.84273	722.00844	-785.46569	-1260.91341	610.91435	-774.67104	-1154.58279	1200.74733	-378.77780	-1128.55270	1091.10800	-383.38507	-1185.82081	1055.34673	-371.90323	-1262.91095	1178.70277	-398.67084	-1238.34287	1062.72295	-390.74417	-1130.01875	1199.04516	-754.04994	-1119.76312	1063.87393	-745.86997	-1238.59031	1193.15366	-769.94266	-1224.65274	1055.71322	-773.83044	-1114.33588	1458.59594	-445.18995	-1287.33449	1531.76235	-530.35380	-1130.37423	1442.72911	-715.42747	-1289.71341	1531.56692	-623.58932	-1074.24348	1978.59304	-600.55467	-1016.97789	1923.97443	-430.79041	-1028.81310	1935.63436	-770.15914	-965.05006	1856.04385	-571.05869	-964.31978	1855.37658	-621.83224	-1093.59074	1686.55344	-323.84475	-1214.17347	1578.34462	-331.66757	-1183.14180	1615.85727	-261.33976	-1003.13127	1503.31418	-305.06883	-930.48304	1457.16229	-335.44028	-940.90196	1437.14839	-303.66370	-1084.86895	1667.41803	-866.35916	-1201.50981	1599.45301	-850.55577	-1153.04682	1604.63180	-921.67081	-979.38158	1512.21539	-852.04016	-923.76184	1485.61903	-808.75678	-929.25047	1467.95366	-840.09982	-1216.07288	1385.61295	-474.12089	-1230.17425	1379.69847	-671.00435	-1206.13165	1387.52150	-481.21824	-1210.69683	1387.14640	-660.13709	
